<svg width="180" height="52" viewBox="0 0 180 52" fill="none" xmlns="http://www.w3.org/2000/svg">
<path d="M29.633 11.3416C27.976 11.8906 26.405 12.4456 25.252 13.5916C24.099 14.7376 23.49 16.4486 23.682 18.9306C23.709 19.3256 24.144 19.6416 24.538 19.5546C26.259 19.1746 27.946 18.5086 29.138 17.2726C30.331 16.0356 30.946 14.2156 30.555 11.8796C30.456 11.3376 30.045 11.2246 29.633 11.3416ZM19.433 19.9096C20.293 19.9096 21.151 20.2726 22.013 20.6956C22.875 21.1176 23.708 21.6316 24.703 21.6316C25.828 21.5266 26.887 21.0456 27.766 20.6846C28.783 20.2706 29.807 19.9096 30.676 19.9096C32.246 19.9096 33.924 20.8956 34.946 21.9446C33.014 23.6246 31.379 25.5986 31.379 27.8326C31.391 30.8546 33.388 32.5076 35.496 33.9676C35.0822 35.6743 34.2984 37.2693 33.2 38.6396C32.046 40.0536 30.675 40.9216 29.62 40.9216C28.723 40.9216 27.956 40.6336 27.183 40.2976C26.411 39.9606 25.639 39.5436 24.702 39.5436C23.765 39.5436 22.93 39.9476 22.067 40.2866C21.204 40.6256 20.33 40.9216 19.432 40.9216C19.037 40.9216 18.309 40.5946 17.522 39.8666C16.734 39.1386 15.88 38.0526 15.117 36.7446C13.593 34.1276 12.406 30.6066 12.406 27.1436C12.34 23.0166 15.854 19.9166 19.433 19.9096Z" fill="black"/>
<path d="M45.6059 19.88V12.124H47.8459C48.4619 12.124 48.9799 12.2127 49.3999 12.39C49.8199 12.558 50.1605 12.81 50.4219 13.146C50.6925 13.4727 50.8839 13.874 50.9959 14.35C51.1172 14.8167 51.1779 15.3487 51.1779 15.946C51.1779 16.562 51.1125 17.0893 50.9819 17.528C50.8605 17.9573 50.7019 18.3167 50.5059 18.606C50.3099 18.8953 50.0859 19.124 49.8339 19.292C49.5912 19.46 49.3439 19.5907 49.0919 19.684C48.8399 19.768 48.6019 19.824 48.3779 19.852C48.1539 19.8707 47.9672 19.88 47.8179 19.88H45.6059ZM44.2759 11.004V21H47.7059C48.5365 21 49.2552 20.8833 49.8619 20.65C50.4685 20.4167 50.9679 20.0807 51.3599 19.642C51.7519 19.194 52.0412 18.648 52.2279 18.004C52.4145 17.3507 52.5079 16.604 52.5079 15.764C52.5079 14.1587 52.0925 12.964 51.2619 12.18C50.4312 11.396 49.2459 11.004 47.7059 11.004H44.2759ZM56.0953 17.388C56.0953 16.9493 56.1513 16.562 56.2633 16.226C56.3846 15.8807 56.548 15.5913 56.7533 15.358C56.9586 15.1247 57.1966 14.9473 57.4673 14.826C57.7473 14.7047 58.0413 14.644 58.3493 14.644C58.6573 14.644 58.9466 14.7047 59.2173 14.826C59.4973 14.9473 59.74 15.1247 59.9453 15.358C60.1506 15.5913 60.3093 15.8807 60.4213 16.226C60.5426 16.562 60.6033 16.9493 60.6033 17.388C60.6033 17.8267 60.5426 18.2187 60.4213 18.564C60.3093 18.9 60.1506 19.1847 59.9453 19.418C59.74 19.642 59.4973 19.8147 59.2173 19.936C58.9466 20.0573 58.6573 20.118 58.3493 20.118C58.0413 20.118 57.7473 20.0573 57.4673 19.936C57.1966 19.8147 56.9586 19.642 56.7533 19.418C56.548 19.1847 56.3846 18.9 56.2633 18.564C56.1513 18.2187 56.0953 17.8267 56.0953 17.388ZM54.8353 17.388C54.8353 17.92 54.91 18.4147 55.0593 18.872C55.2086 19.3293 55.4326 19.7307 55.7313 20.076C56.03 20.412 56.3986 20.678 56.8373 20.874C57.276 21.0607 57.78 21.154 58.3493 21.154C58.928 21.154 59.432 21.0607 59.8613 20.874C60.3 20.678 60.6686 20.412 60.9673 20.076C61.266 19.7307 61.49 19.3293 61.6393 18.872C61.7886 18.4147 61.8633 17.92 61.8633 17.388C61.8633 16.856 61.7886 16.3613 61.6393 15.904C61.49 15.4373 61.266 15.036 60.9673 14.7C60.6686 14.3547 60.3 14.084 59.8613 13.888C59.432 13.692 58.928 13.594 58.3493 13.594C57.78 13.594 57.276 13.692 56.8373 13.888C56.3986 14.084 56.03 14.3547 55.7313 14.7C55.4326 15.036 55.2086 15.4373 55.0593 15.904C54.91 16.3613 54.8353 16.856 54.8353 17.388ZM71.7244 21L74.0344 13.762H72.8024L71.1784 19.684H71.1504L69.6384 13.762H68.3364L66.8804 19.684H66.8524L65.2144 13.762H63.8984L66.2224 21H67.5104L68.9664 15.246H68.9944L70.4644 21H71.7244ZM76.4557 13.762V21H77.6457V16.912C77.6457 16.5853 77.6877 16.2867 77.7717 16.016C77.8651 15.736 78.0004 15.4933 78.1777 15.288C78.3551 15.0827 78.5744 14.924 78.8357 14.812C79.1064 14.7 79.4237 14.644 79.7877 14.644C80.2451 14.644 80.6044 14.7747 80.8657 15.036C81.1271 15.2973 81.2577 15.652 81.2577 16.1V21H82.4477V16.24C82.4477 15.848 82.4057 15.4933 82.3217 15.176C82.2471 14.8493 82.1117 14.5693 81.9157 14.336C81.7197 14.1027 81.4631 13.9207 81.1457 13.79C80.8284 13.6593 80.4317 13.594 79.9557 13.594C78.8824 13.594 78.0984 14.0327 77.6037 14.91H77.5757V13.762H76.4557ZM85.595 11.004V21H86.785V11.004H85.595ZM90.7865 17.388C90.7865 16.9493 90.8425 16.562 90.9545 16.226C91.0759 15.8807 91.2392 15.5913 91.4445 15.358C91.6499 15.1247 91.8879 14.9473 92.1585 14.826C92.4385 14.7047 92.7325 14.644 93.0405 14.644C93.3485 14.644 93.6379 14.7047 93.9085 14.826C94.1885 14.9473 94.4312 15.1247 94.6365 15.358C94.8419 15.5913 95.0005 15.8807 95.1125 16.226C95.2339 16.562 95.2945 16.9493 95.2945 17.388C95.2945 17.8267 95.2339 18.2187 95.1125 18.564C95.0005 18.9 94.8419 19.1847 94.6365 19.418C94.4312 19.642 94.1885 19.8147 93.9085 19.936C93.6379 20.0573 93.3485 20.118 93.0405 20.118C92.7325 20.118 92.4385 20.0573 92.1585 19.936C91.8879 19.8147 91.6499 19.642 91.4445 19.418C91.2392 19.1847 91.0759 18.9 90.9545 18.564C90.8425 18.2187 90.7865 17.8267 90.7865 17.388ZM89.5265 17.388C89.5265 17.92 89.6012 18.4147 89.7505 18.872C89.8999 19.3293 90.1239 19.7307 90.4225 20.076C90.7212 20.412 91.0899 20.678 91.5285 20.874C91.9672 21.0607 92.4712 21.154 93.0405 21.154C93.6192 21.154 94.1232 21.0607 94.5525 20.874C94.9912 20.678 95.3599 20.412 95.6585 20.076C95.9572 19.7307 96.1812 19.3293 96.3305 18.872C96.4799 18.4147 96.5545 17.92 96.5545 17.388C96.5545 16.856 96.4799 16.3613 96.3305 15.904C96.1812 15.4373 95.9572 15.036 95.6585 14.7C95.3599 14.3547 94.9912 14.084 94.5525 13.888C94.1232 13.692 93.6192 13.594 93.0405 13.594C92.4712 13.594 91.9672 13.692 91.5285 13.888C91.0899 14.084 90.7212 14.3547 90.4225 14.7C90.1239 15.036 89.8999 15.4373 89.7505 15.904C89.6012 16.3613 89.5265 16.856 89.5265 17.388ZM105.66 20.972C105.454 21.0933 105.17 21.154 104.806 21.154C104.498 21.154 104.25 21.07 104.064 20.902C103.886 20.7247 103.798 20.44 103.798 20.048C103.471 20.44 103.088 20.7247 102.65 20.902C102.22 21.07 101.754 21.154 101.25 21.154C100.923 21.154 100.61 21.1167 100.312 21.042C100.022 20.9673 99.7703 20.8507 99.5556 20.692C99.3409 20.5333 99.1683 20.328 99.0376 20.076C98.9163 19.8147 98.8556 19.502 98.8556 19.138C98.8556 18.7273 98.9256 18.3913 99.0656 18.13C99.2056 17.8687 99.3876 17.6587 99.6116 17.5C99.8449 17.332 100.106 17.206 100.396 17.122C100.694 17.038 100.998 16.968 101.306 16.912C101.632 16.8467 101.94 16.8 102.23 16.772C102.528 16.7347 102.79 16.688 103.014 16.632C103.238 16.5667 103.415 16.478 103.546 16.366C103.676 16.2447 103.742 16.072 103.742 15.848C103.742 15.5867 103.69 15.3767 103.588 15.218C103.494 15.0593 103.368 14.938 103.21 14.854C103.06 14.77 102.888 14.714 102.692 14.686C102.505 14.658 102.318 14.644 102.132 14.644C101.628 14.644 101.208 14.742 100.872 14.938C100.536 15.1247 100.354 15.484 100.326 16.016H99.1356C99.1543 15.568 99.2476 15.19 99.4156 14.882C99.5836 14.574 99.8076 14.3267 100.088 14.14C100.368 13.944 100.685 13.804 101.04 13.72C101.404 13.636 101.791 13.594 102.202 13.594C102.528 13.594 102.85 13.6173 103.168 13.664C103.494 13.7107 103.788 13.8087 104.05 13.958C104.311 14.098 104.521 14.2987 104.68 14.56C104.838 14.8213 104.918 15.162 104.918 15.582V19.306C104.918 19.586 104.932 19.7913 104.96 19.922C104.997 20.0527 105.109 20.118 105.296 20.118C105.398 20.118 105.52 20.0947 105.66 20.048V20.972ZM103.728 17.262C103.578 17.374 103.382 17.458 103.14 17.514C102.897 17.5607 102.64 17.6027 102.37 17.64C102.108 17.668 101.842 17.7053 101.572 17.752C101.301 17.7893 101.058 17.8547 100.844 17.948C100.629 18.0413 100.452 18.1767 100.312 18.354C100.181 18.522 100.116 18.7553 100.116 19.054C100.116 19.25 100.153 19.418 100.228 19.558C100.312 19.6887 100.414 19.796 100.536 19.88C100.666 19.964 100.816 20.0247 100.984 20.062C101.152 20.0993 101.329 20.118 101.516 20.118C101.908 20.118 102.244 20.0667 102.524 19.964C102.804 19.852 103.032 19.7167 103.21 19.558C103.387 19.39 103.518 19.2127 103.602 19.026C103.686 18.83 103.728 18.648 103.728 18.48V17.262ZM108.925 17.444C108.925 17.0893 108.962 16.744 109.037 16.408C109.112 16.072 109.233 15.7733 109.401 15.512C109.569 15.2507 109.793 15.0407 110.073 14.882C110.353 14.7233 110.694 14.644 111.095 14.644C111.506 14.644 111.856 14.7233 112.145 14.882C112.434 15.0313 112.668 15.232 112.845 15.484C113.032 15.736 113.167 16.03 113.251 16.366C113.335 16.6927 113.377 17.0333 113.377 17.388C113.377 17.724 113.335 18.0553 113.251 18.382C113.176 18.7087 113.05 19.0027 112.873 19.264C112.696 19.516 112.467 19.7213 112.187 19.88C111.907 20.0387 111.566 20.118 111.165 20.118C110.782 20.118 110.446 20.0433 110.157 19.894C109.877 19.7447 109.644 19.544 109.457 19.292C109.28 19.04 109.144 18.7553 109.051 18.438C108.967 18.1113 108.925 17.78 108.925 17.444ZM114.525 21V11.004H113.335V14.728H113.307C113.176 14.5133 113.013 14.336 112.817 14.196C112.63 14.0467 112.43 13.93 112.215 13.846C112 13.7527 111.786 13.6873 111.571 13.65C111.356 13.6127 111.156 13.594 110.969 13.594C110.418 13.594 109.933 13.6967 109.513 13.902C109.102 14.098 108.757 14.3687 108.477 14.714C108.206 15.05 108.001 15.4467 107.861 15.904C107.73 16.3613 107.665 16.8467 107.665 17.36C107.665 17.8733 107.735 18.3587 107.875 18.816C108.015 19.2733 108.22 19.6747 108.491 20.02C108.771 20.3653 109.116 20.6407 109.527 20.846C109.947 21.0513 110.437 21.154 110.997 21.154C111.501 21.154 111.963 21.0653 112.383 20.888C112.803 20.7107 113.111 20.4213 113.307 20.02H113.335V21H114.525ZM123.7 17.388C123.7 16.9493 123.756 16.562 123.868 16.226C123.99 15.8807 124.153 15.5913 124.358 15.358C124.564 15.1247 124.802 14.9473 125.072 14.826C125.352 14.7047 125.646 14.644 125.954 14.644C126.262 14.644 126.552 14.7047 126.822 14.826C127.102 14.9473 127.345 15.1247 127.55 15.358C127.756 15.5913 127.914 15.8807 128.026 16.226C128.148 16.562 128.208 16.9493 128.208 17.388C128.208 17.8267 128.148 18.2187 128.026 18.564C127.914 18.9 127.756 19.1847 127.55 19.418C127.345 19.642 127.102 19.8147 126.822 19.936C126.552 20.0573 126.262 20.118 125.954 20.118C125.646 20.118 125.352 20.0573 125.072 19.936C124.802 19.8147 124.564 19.642 124.358 19.418C124.153 19.1847 123.99 18.9 123.868 18.564C123.756 18.2187 123.7 17.8267 123.7 17.388ZM122.44 17.388C122.44 17.92 122.515 18.4147 122.664 18.872C122.814 19.3293 123.038 19.7307 123.336 20.076C123.635 20.412 124.004 20.678 124.442 20.874C124.881 21.0607 125.385 21.154 125.954 21.154C126.533 21.154 127.037 21.0607 127.466 20.874C127.905 20.678 128.274 20.412 128.572 20.076C128.871 19.7307 129.095 19.3293 129.244 18.872C129.394 18.4147 129.468 17.92 129.468 17.388C129.468 16.856 129.394 16.3613 129.244 15.904C129.095 15.4373 128.871 15.036 128.572 14.7C128.274 14.3547 127.905 14.084 127.466 13.888C127.037 13.692 126.533 13.594 125.954 13.594C125.385 13.594 124.881 13.692 124.442 13.888C124.004 14.084 123.635 14.3547 123.336 14.7C123.038 15.036 122.814 15.4373 122.664 15.904C122.515 16.3613 122.44 16.856 122.44 17.388ZM132.162 13.762V21H133.352V16.912C133.352 16.5853 133.394 16.2867 133.478 16.016C133.571 15.736 133.706 15.4933 133.884 15.288C134.061 15.0827 134.28 14.924 134.542 14.812C134.812 14.7 135.13 14.644 135.494 14.644C135.951 14.644 136.31 14.7747 136.572 15.036C136.833 15.2973 136.964 15.652 136.964 16.1V21H138.154V16.24C138.154 15.848 138.112 15.4933 138.028 15.176C137.953 14.8493 137.818 14.5693 137.622 14.336C137.426 14.1027 137.169 13.9207 136.852 13.79C136.534 13.6593 136.138 13.594 135.662 13.594C134.588 13.594 133.804 14.0327 133.31 14.91H133.282V13.762H132.162ZM148.069 13.762V11.592H146.879V13.762H145.647V14.812H146.879V19.418C146.879 19.754 146.912 20.0247 146.977 20.23C147.043 20.4353 147.141 20.594 147.271 20.706C147.411 20.818 147.589 20.8973 147.803 20.944C148.027 20.9813 148.293 21 148.601 21H149.511V19.95H148.965C148.779 19.95 148.625 19.9453 148.503 19.936C148.391 19.9173 148.303 19.8847 148.237 19.838C148.172 19.7913 148.125 19.726 148.097 19.642C148.079 19.558 148.069 19.446 148.069 19.306V14.812H149.511V13.762H148.069ZM152.123 11.004V21H153.313V16.912C153.313 16.5853 153.355 16.2867 153.439 16.016C153.533 15.736 153.668 15.4933 153.845 15.288C154.023 15.0827 154.242 14.924 154.503 14.812C154.774 14.7 155.091 14.644 155.455 14.644C155.913 14.644 156.272 14.7747 156.533 15.036C156.795 15.2973 156.925 15.652 156.925 16.1V21H158.115V16.24C158.115 15.848 158.073 15.4933 157.989 15.176C157.915 14.8493 157.779 14.5693 157.583 14.336C157.387 14.1027 157.131 13.9207 156.813 13.79C156.496 13.6593 156.099 13.594 155.623 13.594C155.409 13.594 155.185 13.6173 154.951 13.664C154.727 13.7107 154.508 13.7853 154.293 13.888C154.088 13.9813 153.901 14.1073 153.733 14.266C153.565 14.4153 153.435 14.602 153.341 14.826H153.313V11.004H152.123ZM166.219 16.688H162.061C162.079 16.408 162.14 16.1467 162.243 15.904C162.345 15.652 162.485 15.4327 162.663 15.246C162.84 15.0593 163.05 14.9147 163.293 14.812C163.545 14.7 163.825 14.644 164.133 14.644C164.431 14.644 164.702 14.7 164.945 14.812C165.197 14.9147 165.411 15.0593 165.589 15.246C165.775 15.4233 165.92 15.638 166.023 15.89C166.135 16.142 166.2 16.408 166.219 16.688ZM167.367 18.704H166.191C166.088 19.18 165.873 19.5347 165.547 19.768C165.229 20.0013 164.819 20.118 164.315 20.118C163.923 20.118 163.582 20.0527 163.293 19.922C163.003 19.7913 162.765 19.6187 162.579 19.404C162.392 19.18 162.257 18.928 162.173 18.648C162.089 18.3587 162.051 18.0553 162.061 17.738H167.479C167.497 17.2993 167.455 16.8373 167.353 16.352C167.259 15.8667 167.082 15.4187 166.821 15.008C166.569 14.5973 166.228 14.2613 165.799 14C165.379 13.7293 164.847 13.594 164.203 13.594C163.708 13.594 163.251 13.6873 162.831 13.874C162.42 14.0607 162.061 14.322 161.753 14.658C161.454 14.994 161.221 15.3907 161.053 15.848C160.885 16.3053 160.801 16.8093 160.801 17.36C160.819 17.9107 160.899 18.4193 161.039 18.886C161.188 19.3527 161.407 19.754 161.697 20.09C161.986 20.426 162.341 20.6873 162.761 20.874C163.19 21.0607 163.694 21.154 164.273 21.154C165.094 21.154 165.775 20.9487 166.317 20.538C166.858 20.1273 167.208 19.516 167.367 18.704Z" fill="black"/>
<path d="M67.5326 36.28L69.4686 30.952H69.5006L71.4046 36.28H67.5326ZM68.6686 29.576L64.2206 41H65.7726L67.0526 37.56H71.8846L73.1326 41H74.8126L70.3486 29.576H68.6686ZM77.0536 32.728V44.152H78.4136V39.896H78.4456C78.5949 40.1413 78.7762 40.3493 78.9896 40.52C79.2136 40.68 79.4482 40.808 79.6936 40.904C79.9389 41 80.1842 41.0693 80.4296 41.112C80.6856 41.1547 80.9149 41.176 81.1176 41.176C81.7469 41.176 82.2962 41.064 82.7656 40.84C83.2456 40.616 83.6402 40.312 83.9496 39.928C84.2696 39.5333 84.5042 39.0747 84.6536 38.552C84.8136 38.0293 84.8936 37.4747 84.8936 36.888C84.8936 36.3013 84.8136 35.7467 84.6536 35.224C84.4936 34.7013 84.2536 34.2427 83.9336 33.848C83.6242 33.4427 83.2296 33.1227 82.7496 32.888C82.2802 32.6533 81.7256 32.536 81.0856 32.536C80.5096 32.536 79.9816 32.6427 79.5016 32.856C79.0216 33.0587 78.6696 33.3893 78.4456 33.848H78.4136V32.728H77.0536ZM83.4536 36.792C83.4536 37.1973 83.4109 37.592 83.3256 37.976C83.2402 38.36 83.1016 38.7013 82.9096 39C82.7176 39.2987 82.4616 39.5387 82.1416 39.72C81.8322 39.9013 81.4429 39.992 80.9736 39.992C80.5042 39.992 80.1042 39.9067 79.7736 39.736C79.4429 39.5547 79.1709 39.32 78.9576 39.032C78.7549 38.744 78.6056 38.4133 78.5096 38.04C78.4136 37.656 78.3656 37.2613 78.3656 36.856C78.3656 36.472 78.4082 36.0933 78.4936 35.72C78.5896 35.3467 78.7389 35.016 78.9416 34.728C79.1442 34.4293 79.4056 34.1893 79.7256 34.008C80.0456 33.8267 80.4349 33.736 80.8936 33.736C81.3309 33.736 81.7096 33.8213 82.0296 33.992C82.3602 34.1627 82.6269 34.392 82.8296 34.68C83.0429 34.968 83.1976 35.2987 83.2936 35.672C83.4002 36.0347 83.4536 36.408 83.4536 36.792ZM87.8279 32.728V44.152H89.1879V39.896H89.2199C89.3693 40.1413 89.5506 40.3493 89.7639 40.52C89.9879 40.68 90.2226 40.808 90.4679 40.904C90.7133 41 90.9586 41.0693 91.2039 41.112C91.4599 41.1547 91.6893 41.176 91.8919 41.176C92.5213 41.176 93.0706 41.064 93.5399 40.84C94.0199 40.616 94.4146 40.312 94.7239 39.928C95.0439 39.5333 95.2786 39.0747 95.4279 38.552C95.5879 38.0293 95.6679 37.4747 95.6679 36.888C95.6679 36.3013 95.5879 35.7467 95.4279 35.224C95.2679 34.7013 95.0279 34.2427 94.7079 33.848C94.3986 33.4427 94.0039 33.1227 93.5239 32.888C93.0546 32.6533 92.4999 32.536 91.8599 32.536C91.2839 32.536 90.7559 32.6427 90.2759 32.856C89.7959 33.0587 89.4439 33.3893 89.2199 33.848H89.1879V32.728H87.8279ZM94.2279 36.792C94.2279 37.1973 94.1853 37.592 94.0999 37.976C94.0146 38.36 93.8759 38.7013 93.6839 39C93.4919 39.2987 93.2359 39.5387 92.9159 39.72C92.6066 39.9013 92.2173 39.992 91.7479 39.992C91.2786 39.992 90.8786 39.9067 90.5479 39.736C90.2173 39.5547 89.9453 39.32 89.7319 39.032C89.5293 38.744 89.3799 38.4133 89.2839 38.04C89.1879 37.656 89.1399 37.2613 89.1399 36.856C89.1399 36.472 89.1826 36.0933 89.2679 35.72C89.3639 35.3467 89.5133 35.016 89.7159 34.728C89.9186 34.4293 90.1799 34.1893 90.4999 34.008C90.8199 33.8267 91.2093 33.736 91.6679 33.736C92.1053 33.736 92.4839 33.8213 92.8039 33.992C93.1346 34.1627 93.4013 34.392 93.6039 34.68C93.8173 34.968 93.9719 35.2987 94.0679 35.672C94.1746 36.0347 94.2279 36.408 94.2279 36.792ZM111.129 32.92H112.569C112.548 32.2907 112.425 31.752 112.201 31.304C111.988 30.8453 111.689 30.4667 111.305 30.168C110.932 29.8693 110.495 29.6507 109.993 29.512C109.492 29.3733 108.948 29.304 108.361 29.304C107.839 29.304 107.327 29.3733 106.825 29.512C106.335 29.64 105.892 29.8427 105.497 30.12C105.113 30.3867 104.804 30.7333 104.569 31.16C104.335 31.576 104.217 32.072 104.217 32.648C104.217 33.1707 104.319 33.608 104.521 33.96C104.735 34.3013 105.012 34.584 105.353 34.808C105.705 35.0213 106.1 35.1973 106.537 35.336C106.975 35.464 107.417 35.5813 107.865 35.688C108.324 35.784 108.772 35.88 109.209 35.976C109.647 36.072 110.036 36.2 110.377 36.36C110.729 36.5093 111.007 36.7067 111.209 36.952C111.423 37.1973 111.529 37.5173 111.529 37.912C111.529 38.328 111.444 38.6693 111.273 38.936C111.103 39.2027 110.879 39.416 110.601 39.576C110.324 39.7253 110.009 39.832 109.657 39.896C109.316 39.96 108.975 39.992 108.633 39.992C108.207 39.992 107.791 39.9387 107.385 39.832C106.98 39.7253 106.623 39.56 106.313 39.336C106.015 39.112 105.769 38.8293 105.577 38.488C105.396 38.136 105.305 37.72 105.305 37.24H103.865C103.865 37.9333 103.988 38.536 104.233 39.048C104.489 39.5493 104.831 39.9653 105.257 40.296C105.695 40.616 106.196 40.856 106.761 41.016C107.337 41.176 107.945 41.256 108.585 41.256C109.108 41.256 109.631 41.192 110.153 41.064C110.687 40.9467 111.167 40.7547 111.593 40.488C112.02 40.2107 112.367 39.8587 112.633 39.432C112.911 38.9947 113.049 38.472 113.049 37.864C113.049 37.2987 112.943 36.8293 112.729 36.456C112.527 36.0827 112.249 35.7733 111.897 35.528C111.556 35.2827 111.167 35.0907 110.729 34.952C110.292 34.8027 109.844 34.6747 109.385 34.568C108.937 34.4613 108.495 34.3653 108.057 34.28C107.62 34.184 107.225 34.0667 106.873 33.928C106.532 33.7893 106.255 33.6133 106.041 33.4C105.839 33.176 105.737 32.888 105.737 32.536C105.737 32.1627 105.807 31.8533 105.945 31.608C106.095 31.352 106.287 31.1493 106.521 31C106.767 30.8507 107.044 30.744 107.353 30.68C107.663 30.616 107.977 30.584 108.297 30.584C109.087 30.584 109.732 30.7707 110.233 31.144C110.745 31.5067 111.044 32.0987 111.129 32.92ZM117.85 32.728V30.248H116.49V32.728H115.082V33.928H116.49V39.192C116.49 39.576 116.528 39.8853 116.602 40.12C116.677 40.3547 116.789 40.536 116.938 40.664C117.098 40.792 117.301 40.8827 117.546 40.936C117.802 40.9787 118.106 41 118.458 41H119.498V39.8H118.874C118.661 39.8 118.485 39.7947 118.346 39.784C118.218 39.7627 118.117 39.7253 118.042 39.672C117.968 39.6187 117.914 39.544 117.882 39.448C117.861 39.352 117.85 39.224 117.85 39.064V33.928H119.498V32.728H117.85ZM123.291 36.872C123.291 36.3707 123.355 35.928 123.483 35.544C123.622 35.1493 123.809 34.8187 124.043 34.552C124.278 34.2853 124.55 34.0827 124.859 33.944C125.179 33.8053 125.515 33.736 125.867 33.736C126.219 33.736 126.55 33.8053 126.859 33.944C127.179 34.0827 127.457 34.2853 127.691 34.552C127.926 34.8187 128.107 35.1493 128.235 35.544C128.374 35.928 128.443 36.3707 128.443 36.872C128.443 37.3733 128.374 37.8213 128.235 38.216C128.107 38.6 127.926 38.9253 127.691 39.192C127.457 39.448 127.179 39.6453 126.859 39.784C126.55 39.9227 126.219 39.992 125.867 39.992C125.515 39.992 125.179 39.9227 124.859 39.784C124.55 39.6453 124.278 39.448 124.043 39.192C123.809 38.9253 123.622 38.6 123.483 38.216C123.355 37.8213 123.291 37.3733 123.291 36.872ZM121.851 36.872C121.851 37.48 121.937 38.0453 122.107 38.568C122.278 39.0907 122.534 39.5493 122.875 39.944C123.217 40.328 123.638 40.632 124.139 40.856C124.641 41.0693 125.217 41.176 125.867 41.176C126.529 41.176 127.105 41.0693 127.595 40.856C128.097 40.632 128.518 40.328 128.859 39.944C129.201 39.5493 129.457 39.0907 129.627 38.568C129.798 38.0453 129.883 37.48 129.883 36.872C129.883 36.264 129.798 35.6987 129.627 35.176C129.457 34.6427 129.201 34.184 128.859 33.8C128.518 33.4053 128.097 33.096 127.595 32.872C127.105 32.648 126.529 32.536 125.867 32.536C125.217 32.536 124.641 32.648 124.139 32.872C123.638 33.096 123.217 33.4053 122.875 33.8C122.534 34.184 122.278 34.6427 122.107 35.176C121.937 35.6987 121.851 36.264 121.851 36.872ZM132.729 32.728V41H134.089V37.32C134.089 36.7867 134.142 36.3173 134.249 35.912C134.355 35.496 134.526 35.144 134.761 34.856C134.995 34.568 135.305 34.3493 135.689 34.2C136.073 34.0507 136.537 33.976 137.081 33.976V32.536C136.345 32.5147 135.737 32.664 135.257 32.984C134.777 33.304 134.371 33.8 134.041 34.472H134.009V32.728H132.729ZM144.858 36.072H140.106C140.127 35.752 140.196 35.4533 140.314 35.176C140.431 34.888 140.591 34.6373 140.794 34.424C140.996 34.2107 141.236 34.0453 141.514 33.928C141.802 33.8 142.122 33.736 142.474 33.736C142.815 33.736 143.124 33.8 143.402 33.928C143.69 34.0453 143.935 34.2107 144.138 34.424C144.351 34.6267 144.516 34.872 144.634 35.16C144.762 35.448 144.836 35.752 144.858 36.072ZM146.17 38.376H144.826C144.708 38.92 144.463 39.3253 144.09 39.592C143.727 39.8587 143.258 39.992 142.682 39.992C142.234 39.992 141.844 39.9173 141.514 39.768C141.183 39.6187 140.911 39.4213 140.698 39.176C140.484 38.92 140.33 38.632 140.234 38.312C140.138 37.9813 140.095 37.6347 140.106 37.272H146.298C146.319 36.7707 146.271 36.2427 146.154 35.688C146.047 35.1333 145.844 34.6213 145.546 34.152C145.258 33.6827 144.868 33.2987 144.378 33C143.898 32.6907 143.29 32.536 142.554 32.536C141.988 32.536 141.466 32.6427 140.986 32.856C140.516 33.0693 140.106 33.368 139.754 33.752C139.412 34.136 139.146 34.5893 138.954 35.112C138.762 35.6347 138.666 36.2107 138.666 36.84C138.687 37.4693 138.778 38.0507 138.938 38.584C139.108 39.1173 139.359 39.576 139.69 39.96C140.02 40.344 140.426 40.6427 140.906 40.856C141.396 41.0693 141.972 41.176 142.634 41.176C143.572 41.176 144.351 40.9413 144.97 40.472C145.588 40.0027 145.988 39.304 146.17 38.376Z" fill="black"/>
<rect x="0.25" y="0.25" width="179.5" height="51.5" rx="9.75" stroke="black" stroke-width="0.5"/>
</svg>
