<svg width="24" height="18" viewBox="0 0 24 18" fill="none" xmlns="http://www.w3.org/2000/svg">
<path fill-rule="evenodd" clip-rule="evenodd" d="M0.156837 0.17196C0.268022 0.0620982 0.41803 0.000488281 0.574337 0.000488281C0.730644 0.000488281 0.880652 0.0620982 0.991837 0.17196L9.82084 8.59996C9.87721 8.65024 9.92232 8.71187 9.9532 8.7808C9.98409 8.84974 10.0001 8.92442 10.0001 8.99996C10.0001 9.0755 9.98409 9.15018 9.9532 9.21912C9.92232 9.28805 9.87721 9.34968 9.82084 9.39996L1.02084 17.828C0.909382 17.9372 0.759875 17.9988 0.603837 18C0.447714 17.9993 0.298055 17.9375 0.186837 17.828C0.130466 17.7777 0.085359 17.7161 0.0544738 17.6471C0.0235886 17.5782 0.00762258 17.5035 0.00762258 17.428C0.00762258 17.3524 0.0235886 17.2777 0.0544738 17.2088C0.085359 17.1399 0.130466 17.0782 0.186837 17.028L8.53784 8.99896L0.154837 0.969961C0.0548966 0.860802 -0.000368609 0.718069 1.85048e-06 0.57007C0.00037231 0.422072 0.0563514 0.279618 0.156837 0.17096V0.17196ZM14.1568 0.17196C14.268 0.0620982 14.418 0.000488281 14.5743 0.000488281C14.7306 0.000488281 14.8807 0.0620982 14.9918 0.17196L23.8208 8.59996C23.8772 8.65024 23.9223 8.71187 23.9532 8.7808C23.9841 8.84974 24.0001 8.92442 24.0001 8.99996C24.0001 9.0755 23.9841 9.15018 23.9532 9.21912C23.9223 9.28805 23.8772 9.34968 23.8208 9.39996L15.0208 17.828C14.9094 17.9372 14.7599 17.9988 14.6038 18C14.4477 17.9993 14.2981 17.9375 14.1868 17.828C14.1305 17.7777 14.0854 17.7161 14.0545 17.6471C14.0236 17.5782 14.0076 17.5035 14.0076 17.428C14.0076 17.3524 14.0236 17.2777 14.0545 17.2088C14.0854 17.1399 14.1305 17.0782 14.1868 17.028L22.5378 8.99896L14.1548 0.969961C14.0549 0.860802 13.9996 0.718069 14 0.57007C14.0004 0.422072 14.0564 0.279618 14.1568 0.17096V0.17196Z" fill="black"/>
</svg>
