<svg width="19" height="10" viewBox="0 0 19 10" fill="none" xmlns="http://www.w3.org/2000/svg">
<path fill-rule="evenodd" clip-rule="evenodd" d="M18.0785 0.156531C18.1884 0.267717 18.25 0.417725 18.25 0.574032C18.25 0.730339 18.1884 0.880346 18.0785 0.991531L9.65053 9.82053C9.60025 9.8769 9.53862 9.92201 9.46968 9.9529C9.40075 9.98378 9.32606 9.99975 9.25053 9.99975C9.17499 9.99975 9.10031 9.98378 9.03137 9.9529C8.96244 9.92201 8.90081 9.8769 8.85053 9.82053L0.422529 1.02053C0.313318 0.909076 0.25165 0.75957 0.250528 0.603531C0.251228 0.447408 0.31296 0.297749 0.422529 0.186531C0.472811 0.13016 0.534437 0.0850531 0.603373 0.0541679C0.672308 0.0232827 0.746992 0.00731672 0.822529 0.00731672C0.898066 0.00731673 0.97275 0.0232827 1.04169 0.0541679C1.11062 0.0850531 1.17225 0.13016 1.22253 0.186531L9.25153 8.53753L17.2805 0.154531C17.3897 0.0545911 17.5324 -0.000673816 17.6804 -0.00030335C17.8284 6.71158e-05 17.9709 0.0560457 18.0795 0.156531L18.0785 0.156531Z" fill="black"/>
</svg>
