<svg width="180" height="52" viewBox="0 0 180 52" fill="none" xmlns="http://www.w3.org/2000/svg">
<g clip-path="url(#clip0_133_5191)">
<path fill-rule="evenodd" clip-rule="evenodd" d="M30.147 24.3262L15.033 13.8402C13.743 12.9462 12 13.9202 12 15.5262V36.4702C12 38.1032 13.744 39.0522 15.033 38.1562L30.147 27.6702C31.284 26.9062 31.284 25.1162 30.147 24.3262Z" fill="black"/>
</g>
<path d="M79.5633 19.754L79.9133 21H80.7533V15.736H76.3713V16.856H79.5633C79.5819 17.3133 79.5213 17.7427 79.3813 18.144C79.2413 18.536 79.0313 18.8813 78.7513 19.18C78.4806 19.4693 78.1446 19.698 77.7433 19.866C77.3419 20.034 76.8799 20.118 76.3573 20.118C75.7973 20.118 75.3026 20.0107 74.8733 19.796C74.4533 19.572 74.0986 19.278 73.8093 18.914C73.5199 18.5407 73.3006 18.116 73.1513 17.64C73.0019 17.1547 72.9273 16.6507 72.9273 16.128C72.9273 15.596 72.9926 15.078 73.1233 14.574C73.2539 14.0607 73.4546 13.608 73.7253 13.216C74.0053 12.8147 74.3599 12.4927 74.7893 12.25C75.2279 12.0073 75.7506 11.886 76.3573 11.886C76.7306 11.886 77.0806 11.9327 77.4073 12.026C77.7433 12.11 78.0419 12.2407 78.3033 12.418C78.5646 12.5953 78.7839 12.824 78.9613 13.104C79.1386 13.3747 79.2599 13.7013 79.3253 14.084H80.6553C80.5619 13.496 80.3846 12.9967 80.1233 12.586C79.8713 12.166 79.5539 11.8207 79.1713 11.55C78.7979 11.2793 78.3686 11.0833 77.8833 10.962C77.4073 10.8313 76.8986 10.766 76.3573 10.766C75.5639 10.766 74.8686 10.9153 74.2713 11.214C73.6833 11.5033 73.1886 11.8953 72.7873 12.39C72.3953 12.8847 72.0966 13.4633 71.8913 14.126C71.6953 14.7793 71.5973 15.47 71.5973 16.198C71.5973 16.8513 71.7046 17.4813 71.9193 18.088C72.1339 18.6947 72.4466 19.2313 72.8573 19.698C73.2679 20.1647 73.7673 20.538 74.3553 20.818C74.9433 21.0887 75.6106 21.224 76.3573 21.224C76.9453 21.224 77.5286 21.112 78.1073 20.888C78.6859 20.6547 79.1713 20.2767 79.5633 19.754ZM88.8303 16.688H84.6723C84.691 16.408 84.7517 16.1467 84.8543 15.904C84.957 15.652 85.097 15.4327 85.2743 15.246C85.4517 15.0593 85.6617 14.9147 85.9043 14.812C86.1563 14.7 86.4363 14.644 86.7443 14.644C87.043 14.644 87.3137 14.7 87.5563 14.812C87.8083 14.9147 88.023 15.0593 88.2003 15.246C88.387 15.4233 88.5317 15.638 88.6343 15.89C88.7463 16.142 88.8117 16.408 88.8303 16.688ZM89.9783 18.704H88.8023C88.6997 19.18 88.485 19.5347 88.1583 19.768C87.841 20.0013 87.4303 20.118 86.9263 20.118C86.5343 20.118 86.1937 20.0527 85.9043 19.922C85.615 19.7913 85.377 19.6187 85.1903 19.404C85.0037 19.18 84.8683 18.928 84.7843 18.648C84.7003 18.3587 84.663 18.0553 84.6723 17.738H90.0903C90.109 17.2993 90.067 16.8373 89.9643 16.352C89.871 15.8667 89.6937 15.4187 89.4323 15.008C89.1803 14.5973 88.8397 14.2613 88.4103 14C87.9903 13.7293 87.4583 13.594 86.8143 13.594C86.3197 13.594 85.8623 13.6873 85.4423 13.874C85.0317 14.0607 84.6723 14.322 84.3643 14.658C84.0657 14.994 83.8323 15.3907 83.6643 15.848C83.4963 16.3053 83.4123 16.8093 83.4123 17.36C83.431 17.9107 83.5103 18.4193 83.6503 18.886C83.7997 19.3527 84.019 19.754 84.3083 20.09C84.5977 20.426 84.9523 20.6873 85.3723 20.874C85.8017 21.0607 86.3057 21.154 86.8843 21.154C87.7057 21.154 88.387 20.9487 88.9283 20.538C89.4697 20.1273 89.8197 19.516 89.9783 18.704ZM94.2658 13.762V11.592H93.0758V13.762H91.8438V14.812H93.0758V19.418C93.0758 19.754 93.1085 20.0247 93.1738 20.23C93.2392 20.4353 93.3372 20.594 93.4678 20.706C93.6078 20.818 93.7852 20.8973 93.9998 20.944C94.2238 20.9813 94.4898 21 94.7978 21H95.7079V19.95H95.1618C94.9752 19.95 94.8212 19.9453 94.6998 19.936C94.5878 19.9173 94.4992 19.8847 94.4338 19.838C94.3685 19.7913 94.3218 19.726 94.2938 19.642C94.2752 19.558 94.2658 19.446 94.2658 19.306V14.812H95.7079V13.762H94.2658ZM104.766 12.46V11.004H103.576V12.46H104.766ZM103.576 13.762V21H104.766V13.762H103.576ZM109.552 13.762V11.592H108.362V13.762H107.13V14.812H108.362V19.418C108.362 19.754 108.395 20.0247 108.46 20.23C108.525 20.4353 108.623 20.594 108.754 20.706C108.894 20.818 109.071 20.8973 109.286 20.944C109.51 20.9813 109.776 21 110.084 21H110.994V19.95H110.448C110.261 19.95 110.107 19.9453 109.986 19.936C109.874 19.9173 109.785 19.8847 109.72 19.838C109.655 19.7913 109.608 19.726 109.58 19.642C109.561 19.558 109.552 19.446 109.552 19.306V14.812H110.994V13.762H109.552ZM119.66 17.388C119.66 16.9493 119.716 16.562 119.828 16.226C119.95 15.8807 120.113 15.5913 120.318 15.358C120.524 15.1247 120.762 14.9473 121.032 14.826C121.312 14.7047 121.606 14.644 121.914 14.644C122.222 14.644 122.512 14.7047 122.782 14.826C123.062 14.9473 123.305 15.1247 123.51 15.358C123.716 15.5913 123.874 15.8807 123.986 16.226C124.108 16.562 124.168 16.9493 124.168 17.388C124.168 17.8267 124.108 18.2187 123.986 18.564C123.874 18.9 123.716 19.1847 123.51 19.418C123.305 19.642 123.062 19.8147 122.782 19.936C122.512 20.0573 122.222 20.118 121.914 20.118C121.606 20.118 121.312 20.0573 121.032 19.936C120.762 19.8147 120.524 19.642 120.318 19.418C120.113 19.1847 119.95 18.9 119.828 18.564C119.716 18.2187 119.66 17.8267 119.66 17.388ZM118.4 17.388C118.4 17.92 118.475 18.4147 118.624 18.872C118.774 19.3293 118.998 19.7307 119.296 20.076C119.595 20.412 119.964 20.678 120.402 20.874C120.841 21.0607 121.345 21.154 121.914 21.154C122.493 21.154 122.997 21.0607 123.426 20.874C123.865 20.678 124.234 20.412 124.532 20.076C124.831 19.7307 125.055 19.3293 125.204 18.872C125.354 18.4147 125.428 17.92 125.428 17.388C125.428 16.856 125.354 16.3613 125.204 15.904C125.055 15.4373 124.831 15.036 124.532 14.7C124.234 14.3547 123.865 14.084 123.426 13.888C122.997 13.692 122.493 13.594 121.914 13.594C121.345 13.594 120.841 13.692 120.402 13.888C119.964 14.084 119.595 14.3547 119.296 14.7C118.998 15.036 118.774 15.4373 118.624 15.904C118.475 16.3613 118.4 16.856 118.4 17.388ZM128.121 13.762V21H129.311V16.912C129.311 16.5853 129.353 16.2867 129.437 16.016C129.531 15.736 129.666 15.4933 129.843 15.288C130.021 15.0827 130.24 14.924 130.501 14.812C130.772 14.7 131.089 14.644 131.453 14.644C131.911 14.644 132.27 14.7747 132.531 15.036C132.793 15.2973 132.923 15.652 132.923 16.1V21H134.113V16.24C134.113 15.848 134.071 15.4933 133.987 15.176C133.913 14.8493 133.777 14.5693 133.581 14.336C133.385 14.1027 133.129 13.9207 132.811 13.79C132.494 13.6593 132.097 13.594 131.621 13.594C130.548 13.594 129.764 14.0327 129.269 14.91H129.241V13.762H128.121Z" fill="black"/>
<path d="M62.9358 39.576L63.3357 41H64.2957V34.984H59.2877V36.264H62.9358C62.9571 36.7867 62.8877 37.2773 62.7277 37.736C62.5677 38.184 62.3277 38.5787 62.0077 38.92C61.6984 39.2507 61.3144 39.512 60.8557 39.704C60.3971 39.896 59.8691 39.992 59.2717 39.992C58.6317 39.992 58.0664 39.8693 57.5757 39.624C57.0957 39.368 56.6904 39.032 56.3597 38.616C56.0291 38.1893 55.7784 37.704 55.6077 37.16C55.4371 36.6053 55.3517 36.0293 55.3517 35.432C55.3517 34.824 55.4264 34.232 55.5757 33.656C55.7251 33.0693 55.9544 32.552 56.2637 32.104C56.5837 31.6453 56.9891 31.2773 57.4797 31C57.9811 30.7227 58.5784 30.584 59.2717 30.584C59.6984 30.584 60.0984 30.6373 60.4717 30.744C60.8557 30.84 61.1971 30.9893 61.4957 31.192C61.7944 31.3947 62.0451 31.656 62.2477 31.976C62.4504 32.2853 62.5891 32.6587 62.6637 33.096H64.1838C64.0771 32.424 63.8744 31.8533 63.5757 31.384C63.2877 30.904 62.9251 30.5093 62.4878 30.2C62.0611 29.8907 61.5704 29.6667 61.0157 29.528C60.4717 29.3787 59.8904 29.304 59.2717 29.304C58.3651 29.304 57.5704 29.4747 56.8877 29.816C56.2157 30.1467 55.6504 30.5947 55.1917 31.16C54.7437 31.7253 54.4024 32.3867 54.1677 33.144C53.9437 33.8907 53.8317 34.68 53.8317 35.512C53.8317 36.2587 53.9544 36.9787 54.1997 37.672C54.4451 38.3653 54.8024 38.9787 55.2717 39.512C55.7411 40.0453 56.3117 40.472 56.9837 40.792C57.6557 41.1013 58.4184 41.256 59.2717 41.256C59.9437 41.256 60.6104 41.128 61.2717 40.872C61.9331 40.6053 62.4878 40.1733 62.9358 39.576ZM68.5904 36.872C68.5904 36.3707 68.6544 35.928 68.7824 35.544C68.921 35.1493 69.1077 34.8187 69.3424 34.552C69.577 34.2853 69.849 34.0827 70.1584 33.944C70.4784 33.8053 70.8144 33.736 71.1664 33.736C71.5184 33.736 71.849 33.8053 72.1584 33.944C72.4784 34.0827 72.7557 34.2853 72.9904 34.552C73.225 34.8187 73.4064 35.1493 73.5344 35.544C73.673 35.928 73.7424 36.3707 73.7424 36.872C73.7424 37.3733 73.673 37.8213 73.5344 38.216C73.4064 38.6 73.225 38.9253 72.9904 39.192C72.7557 39.448 72.4784 39.6453 72.1584 39.784C71.849 39.9227 71.5184 39.992 71.1664 39.992C70.8144 39.992 70.4784 39.9227 70.1584 39.784C69.849 39.6453 69.577 39.448 69.3424 39.192C69.1077 38.9253 68.921 38.6 68.7824 38.216C68.6544 37.8213 68.5904 37.3733 68.5904 36.872ZM67.1504 36.872C67.1504 37.48 67.2357 38.0453 67.4064 38.568C67.577 39.0907 67.833 39.5493 68.1744 39.944C68.5157 40.328 68.937 40.632 69.4384 40.856C69.9397 41.0693 70.5157 41.176 71.1664 41.176C71.8277 41.176 72.4037 41.0693 72.8944 40.856C73.3957 40.632 73.817 40.328 74.1584 39.944C74.4997 39.5493 74.7557 39.0907 74.9264 38.568C75.097 38.0453 75.1824 37.48 75.1824 36.872C75.1824 36.264 75.097 35.6987 74.9264 35.176C74.7557 34.6427 74.4997 34.184 74.1584 33.8C73.817 33.4053 73.3957 33.096 72.8944 32.872C72.4037 32.648 71.8277 32.536 71.1664 32.536C70.5157 32.536 69.9397 32.648 69.4384 32.872C68.937 33.096 68.5157 33.4053 68.1744 33.8C67.833 34.184 67.577 34.6427 67.4064 35.176C67.2357 35.6987 67.1504 36.264 67.1504 36.872ZM79.0679 36.872C79.0679 36.3707 79.1319 35.928 79.2599 35.544C79.3985 35.1493 79.5852 34.8187 79.8199 34.552C80.0545 34.2853 80.3265 34.0827 80.6359 33.944C80.9559 33.8053 81.2919 33.736 81.6439 33.736C81.9959 33.736 82.3265 33.8053 82.6359 33.944C82.9559 34.0827 83.2332 34.2853 83.4679 34.552C83.7025 34.8187 83.8839 35.1493 84.0119 35.544C84.1505 35.928 84.2199 36.3707 84.2199 36.872C84.2199 37.3733 84.1505 37.8213 84.0119 38.216C83.8839 38.6 83.7025 38.9253 83.4679 39.192C83.2332 39.448 82.9559 39.6453 82.6359 39.784C82.3265 39.9227 81.9959 39.992 81.6439 39.992C81.2919 39.992 80.9559 39.9227 80.6359 39.784C80.3265 39.6453 80.0545 39.448 79.8199 39.192C79.5852 38.9253 79.3985 38.6 79.2599 38.216C79.1319 37.8213 79.0679 37.3733 79.0679 36.872ZM77.6279 36.872C77.6279 37.48 77.7132 38.0453 77.8839 38.568C78.0545 39.0907 78.3105 39.5493 78.6519 39.944C78.9932 40.328 79.4145 40.632 79.9159 40.856C80.4172 41.0693 80.9932 41.176 81.6439 41.176C82.3052 41.176 82.8812 41.0693 83.3719 40.856C83.8732 40.632 84.2945 40.328 84.6359 39.944C84.9772 39.5493 85.2332 39.0907 85.4039 38.568C85.5745 38.0453 85.6599 37.48 85.6599 36.872C85.6599 36.264 85.5745 35.6987 85.4039 35.176C85.2332 34.6427 84.9772 34.184 84.6359 33.8C84.2945 33.4053 83.8732 33.096 83.3719 32.872C82.8812 32.648 82.3052 32.536 81.6439 32.536C80.9932 32.536 80.4172 32.648 79.9159 32.872C79.4145 33.096 78.9932 33.4053 78.6519 33.8C78.3105 34.184 78.0545 34.6427 77.8839 35.176C77.7132 35.6987 77.6279 36.264 77.6279 36.872ZM95.6894 40.296V32.728H94.4094V33.912H94.3934C94.148 33.4533 93.8067 33.112 93.3694 32.888C92.932 32.6533 92.452 32.536 91.9294 32.536C91.2147 32.536 90.612 32.6747 90.1214 32.952C89.6307 33.2187 89.236 33.5653 88.9374 33.992C88.6387 34.408 88.4254 34.8773 88.2974 35.4C88.1694 35.912 88.1054 36.4133 88.1054 36.904C88.1054 37.4693 88.18 38.008 88.3294 38.52C88.4894 39.0213 88.724 39.464 89.0334 39.848C89.3427 40.2213 89.7267 40.52 90.1854 40.744C90.644 40.968 91.1827 41.08 91.8014 41.08C92.3347 41.08 92.836 40.9627 93.3054 40.728C93.7854 40.4827 94.1427 40.104 94.3774 39.592H94.4094V40.136C94.4094 40.5947 94.3614 41.016 94.2654 41.4C94.18 41.784 94.036 42.1093 93.8334 42.376C93.6307 42.6533 93.3747 42.8667 93.0654 43.016C92.756 43.176 92.3774 43.256 91.9294 43.256C91.7054 43.256 91.4707 43.2293 91.2254 43.176C90.98 43.1333 90.7507 43.0587 90.5374 42.952C90.3347 42.8453 90.1587 42.7067 90.0094 42.536C89.8707 42.3653 89.796 42.1573 89.7854 41.912H88.4254C88.4467 42.36 88.564 42.7387 88.7774 43.048C88.9907 43.3573 89.2574 43.608 89.5774 43.8C89.908 43.992 90.2707 44.1307 90.6654 44.216C91.0707 44.3013 91.4654 44.344 91.8494 44.344C93.172 44.344 94.1427 44.008 94.7614 43.336C95.38 42.664 95.6894 41.6507 95.6894 40.296ZM91.8814 39.896C91.4334 39.896 91.06 39.8053 90.7614 39.624C90.4627 39.432 90.2227 39.1867 90.0414 38.888C89.86 38.5787 89.732 38.2373 89.6574 37.864C89.5827 37.4907 89.5454 37.1173 89.5454 36.744C89.5454 36.3493 89.588 35.9707 89.6734 35.608C89.7694 35.2453 89.9134 34.9253 90.1054 34.648C90.308 34.3707 90.564 34.152 90.8734 33.992C91.1827 33.8213 91.556 33.736 91.9934 33.736C92.42 33.736 92.7827 33.8213 93.0814 33.992C93.38 34.1627 93.62 34.392 93.8014 34.68C93.9934 34.9573 94.132 35.272 94.2174 35.624C94.3027 35.976 94.3454 36.3333 94.3454 36.696C94.3454 37.08 94.2974 37.464 94.2014 37.848C94.116 38.232 93.9774 38.5787 93.7854 38.888C93.5934 39.1867 93.3374 39.432 93.0174 39.624C92.708 39.8053 92.3294 39.896 91.8814 39.896ZM99.1109 29.576V41H100.471V29.576H99.1109ZM109.612 36.072H104.86C104.881 35.752 104.95 35.4533 105.068 35.176C105.185 34.888 105.345 34.6373 105.548 34.424C105.75 34.2107 105.99 34.0453 106.268 33.928C106.556 33.8 106.876 33.736 107.228 33.736C107.569 33.736 107.878 33.8 108.156 33.928C108.444 34.0453 108.689 34.2107 108.892 34.424C109.105 34.6267 109.27 34.872 109.388 35.16C109.516 35.448 109.59 35.752 109.612 36.072ZM110.924 38.376H109.58C109.462 38.92 109.217 39.3253 108.844 39.592C108.481 39.8587 108.012 39.992 107.436 39.992C106.988 39.992 106.598 39.9173 106.268 39.768C105.937 39.6187 105.665 39.4213 105.452 39.176C105.238 38.92 105.084 38.632 104.988 38.312C104.892 37.9813 104.849 37.6347 104.86 37.272H111.052C111.073 36.7707 111.025 36.2427 110.908 35.688C110.801 35.1333 110.598 34.6213 110.3 34.152C110.012 33.6827 109.622 33.2987 109.132 33C108.652 32.6907 108.044 32.536 107.308 32.536C106.742 32.536 106.22 32.6427 105.74 32.856C105.27 33.0693 104.86 33.368 104.508 33.752C104.166 34.136 103.9 34.5893 103.708 35.112C103.516 35.6347 103.42 36.2107 103.42 36.84C103.441 37.4693 103.532 38.0507 103.692 38.584C103.862 39.1173 104.113 39.576 104.444 39.96C104.774 40.344 105.18 40.6427 105.66 40.856C106.15 41.0693 106.726 41.176 107.388 41.176C108.326 41.176 109.105 40.9413 109.724 40.472C110.342 40.0027 110.742 39.304 110.924 38.376ZM121.239 35.048V30.856H124.215C125.079 30.856 125.708 31.0373 126.103 31.4C126.508 31.752 126.711 32.2693 126.711 32.952C126.711 33.6347 126.508 34.1573 126.103 34.52C125.708 34.8827 125.079 35.0587 124.215 35.048H121.239ZM119.719 29.576V41H121.239V36.328H124.727C125.879 36.3387 126.748 36.0453 127.335 35.448C127.932 34.8507 128.231 34.0187 128.231 32.952C128.231 31.8853 127.932 31.0587 127.335 30.472C126.748 29.8747 125.879 29.576 124.727 29.576H119.719ZM131.24 29.576V41H132.6V29.576H131.24ZM143.325 40.968C143.09 41.1067 142.765 41.176 142.349 41.176C141.997 41.176 141.714 41.08 141.501 40.888C141.298 40.6853 141.197 40.36 141.197 39.912C140.823 40.36 140.386 40.6853 139.885 40.888C139.394 41.08 138.861 41.176 138.285 41.176C137.911 41.176 137.554 41.1333 137.213 41.048C136.882 40.9627 136.594 40.8293 136.349 40.648C136.103 40.4667 135.906 40.232 135.757 39.944C135.618 39.6453 135.549 39.288 135.549 38.872C135.549 38.4027 135.629 38.0187 135.789 37.72C135.949 37.4213 136.157 37.1813 136.413 37C136.679 36.808 136.978 36.664 137.309 36.568C137.65 36.472 137.997 36.392 138.349 36.328C138.722 36.2533 139.074 36.2 139.405 36.168C139.746 36.1253 140.045 36.072 140.301 36.008C140.557 35.9333 140.759 35.832 140.909 35.704C141.058 35.5653 141.133 35.368 141.133 35.112C141.133 34.8133 141.074 34.5733 140.957 34.392C140.85 34.2107 140.706 34.072 140.525 33.976C140.354 33.88 140.157 33.816 139.933 33.784C139.719 33.752 139.506 33.736 139.293 33.736C138.717 33.736 138.237 33.848 137.853 34.072C137.469 34.2853 137.261 34.696 137.229 35.304H135.869C135.89 34.792 135.997 34.36 136.189 34.008C136.381 33.656 136.637 33.3733 136.957 33.16C137.277 32.936 137.639 32.776 138.045 32.68C138.461 32.584 138.903 32.536 139.373 32.536C139.746 32.536 140.114 32.5627 140.477 32.616C140.85 32.6693 141.186 32.7813 141.485 32.952C141.783 33.112 142.023 33.3413 142.205 33.64C142.386 33.9387 142.477 34.328 142.477 34.808V39.064C142.477 39.384 142.493 39.6187 142.525 39.768C142.567 39.9173 142.695 39.992 142.909 39.992C143.026 39.992 143.165 39.9653 143.325 39.912V40.968ZM141.117 36.728C140.946 36.856 140.722 36.952 140.445 37.016C140.167 37.0693 139.874 37.1173 139.565 37.16C139.266 37.192 138.962 37.2347 138.653 37.288C138.343 37.3307 138.066 37.4053 137.821 37.512C137.575 37.6187 137.373 37.7733 137.213 37.976C137.063 38.168 136.989 38.4347 136.989 38.776C136.989 39 137.031 39.192 137.117 39.352C137.213 39.5013 137.33 39.624 137.469 39.72C137.618 39.816 137.789 39.8853 137.981 39.928C138.173 39.9707 138.375 39.992 138.589 39.992C139.037 39.992 139.421 39.9333 139.741 39.816C140.061 39.688 140.322 39.5333 140.525 39.352C140.727 39.16 140.877 38.9573 140.973 38.744C141.069 38.52 141.117 38.312 141.117 38.12V36.728ZM149.128 42.104C148.968 42.5093 148.808 42.8507 148.648 43.128C148.499 43.4053 148.328 43.6293 148.136 43.8C147.955 43.9813 147.747 44.1093 147.512 44.184C147.288 44.2693 147.027 44.312 146.728 44.312C146.568 44.312 146.408 44.3013 146.248 44.28C146.088 44.2587 145.934 44.2213 145.784 44.168V42.92C145.902 42.9733 146.035 43.016 146.184 43.048C146.344 43.0907 146.478 43.112 146.584 43.112C146.862 43.112 147.091 43.0427 147.272 42.904C147.464 42.776 147.608 42.5893 147.704 42.344L148.264 40.952L144.984 32.728H146.52L148.936 39.496H148.968L151.288 32.728H152.728L149.128 42.104Z" fill="black"/>
<rect x="0.25" y="0.25" width="179.5" height="51.5" rx="9.75" stroke="black" stroke-width="0.5"/>
<defs>
<clipPath id="clip0_133_5191">
<rect width="19" height="25" fill="white" transform="translate(12 13.5)"/>
</clipPath>
</defs>
</svg>
