<svg width="17" height="22" viewBox="0 0 17 22" fill="none" xmlns="http://www.w3.org/2000/svg">
<path d="M3.29524 8.63001V6.45001C3.29524 5.07075 3.84315 3.74799 4.81843 2.7727C5.79372 1.79742 7.11648 1.24951 8.49574 1.24951C9.875 1.24951 11.1978 1.79742 12.1731 2.7727C13.1483 3.74799 13.6962 5.07075 13.6962 6.45001V8.63001M1.58524 8.63001H15.4152C15.667 8.63028 15.9084 8.73048 16.0863 8.90861C16.2643 9.08674 16.3642 9.32823 16.3642 9.58001V19.8C16.3642 20.0519 16.2642 20.2934 16.0862 20.4716C15.9081 20.6497 15.6666 20.7499 15.4147 20.75H1.58574C1.33379 20.75 1.09215 20.6499 0.913991 20.4718C0.735831 20.2936 0.635742 20.052 0.635742 19.8V9.58001C0.635742 9.32806 0.735831 9.08642 0.913991 8.90826C1.09215 8.7301 1.33379 8.63001 1.58574 8.63001H1.58524Z" stroke="white" stroke-linecap="round" stroke-linejoin="round"/>
</svg>
