<svg width="24" height="24" viewBox="0 0 24 24" fill="none" xmlns="http://www.w3.org/2000/svg">
<path d="M19.35 23.9969C18.1886 23.9969 16.9594 23.711 15.6874 23.4136C14.3799 23.1089 13.038 22.7927 11.7097 22.7927C10.3803 22.7927 9.07487 23.1162 7.81227 23.4292C5.21714 24.0741 2.76809 24.6845 0.672789 22.1155L0.521484 21.8963L0.561137 21.6459C1.14653 17.7464 3.1427 14.6087 6.17922 12.816L6.56114 12.5906L6.87001 12.9172C7.52292 13.6269 8.31563 14.1938 9.19827 14.5822C10.0809 14.9706 11.0344 15.1722 11.9987 15.1743C13.9385 15.1743 15.7928 14.3583 17.1264 12.9172L17.43 12.5906L17.8171 12.816C20.8568 14.6139 22.853 17.7496 23.4384 21.6449L23.478 21.913L23.3131 22.1155C22.851 22.7229 22.2499 23.2108 21.5604 23.5381C20.8708 23.8655 20.1129 24.0228 19.35 23.9969ZM11.7222 22.271C13.109 22.271 14.4843 22.5923 15.8137 22.9054C18.6018 23.5576 21.0112 24.1221 22.9187 21.7816L22.9364 21.7607V21.7357C22.374 17.9896 20.4676 14.9937 17.5667 13.2783L17.5291 13.2574L17.501 13.2887C16.8001 14.0462 15.9506 14.651 15.0055 15.0654C14.0604 15.4797 13.04 15.6948 12.0081 15.697C10.976 15.6951 9.9555 15.4802 9.01021 15.066C8.06493 14.6518 7.21522 14.0471 6.51418 13.2897L6.48287 13.2574L6.44635 13.2783C3.52983 14.9937 1.62235 17.9948 1.06201 21.7357V21.7628L1.08079 21.7837C2.9674 24.0981 5.16183 23.5523 7.70479 22.921C8.98409 22.6028 10.3135 22.271 11.7222 22.271ZM11.9966 14.1694C8.17122 14.1694 5.07001 10.9972 5.07001 7.08417C5.07001 3.17113 8.17122 0 11.9966 0C15.823 0 18.9243 3.17217 18.9243 7.08522C18.919 10.9962 15.821 14.1652 11.9966 14.1704V14.1694ZM11.9966 0.52487C9.40148 0.52487 7.06096 2.12348 6.06966 4.5767C5.07522 7.02887 5.62514 9.85252 7.46061 11.7287C8.34689 12.6434 9.4891 13.2686 10.7372 13.5223C11.9853 13.7759 13.281 13.6461 14.454 13.1499C16.8519 12.1336 18.415 9.73983 18.414 7.08522C18.4109 3.46122 15.5403 0.523826 11.9966 0.518609V0.52487Z" fill="black"/>
</svg>
