<svg width="58" height="58" viewBox="0 0 58 58" fill="none" xmlns="http://www.w3.org/2000/svg">
<path fill-rule="evenodd" clip-rule="evenodd" d="M33.8129 40.9449L21.1035 23.4675L34.5677 40.3745C34.7226 40.5667 34.6814 40.8544 34.4752 41.0167C34.2699 41.1781 33.9787 41.1524 33.8247 40.9612C33.8203 40.9562 33.8163 40.9507 33.8129 40.9449Z" fill="#010202"/>
<path d="M33.8973 40.2542C34.6008 41.1525 35.2487 49.0407 35.2487 49.0407C35.2487 49.0407 39.8602 43.8252 40.9004 36.5116C41.9388 29.198 40.5217 28.2203 39.2914 24.5059C38.0611 20.7915 32.8706 16.0029 30.2148 14.6879C28.2995 13.7401 22.1666 11.5849 18.8443 10.4398C17.6476 10.0299 16.2987 10.7062 15.8737 11.9221C13.9012 17.5732 13.5267 23.6179 15.1534 29.1827C16.1186 32.4821 17.7781 35.5988 20.6165 37.1256C20.6165 37.1256 27.2274 40.4216 31.6294 39.5882C36.0297 38.7548 35.2201 47.1536 35.2201 47.1536" stroke="#010202" stroke-width="0.5" stroke-linecap="round" stroke-linejoin="round"/>
<path fill-rule="evenodd" clip-rule="evenodd" d="M28.9255 56.2987L25.5477 56.8896L22.4071 55.4961L18.9889 55.2493L16.2683 53.1334L13.0066 52.0634L10.8649 49.3481L7.95076 47.5182L6.51093 44.3622L4.11261 41.8774L3.4596 38.4618L1.71766 35.4672L1.88849 31.9936L0.903076 28.6626L1.88765 25.3316L1.71766 21.8579L3.4596 18.8625L4.11261 15.4486L6.51093 12.9638L7.94992 9.80699L10.8649 7.97625L13.0066 5.26088L16.2683 4.19181L18.9889 2.07587L22.4071 1.8291L25.5477 0.435547L28.9255 1.02644L32.3034 0.435547L35.4439 1.8291L38.8621 2.07587L41.5827 4.19181L44.8444 5.26173L46.9861 7.9771L49.9003 9.80699L51.3401 12.963L53.7384 15.4478L54.3914 18.8633L56.1334 21.8579L55.9625 25.3316L56.948 28.6626L55.9634 31.9936L56.1334 35.4672L54.3914 38.4627L53.7384 41.8765L51.3401 44.3614L49.9011 47.5182L46.9861 49.3489L44.8444 52.0643L41.5827 53.1334L38.8621 55.2493L35.4439 55.4961L32.3034 56.8896L28.9255 56.2987Z" stroke="black" stroke-width="0.5"/>
</svg>
