<svg width="78" height="58" viewBox="0 0 78 58" fill="none" xmlns="http://www.w3.org/2000/svg">
<mask id="mask0_358_942" style="mask-type:alpha" maskUnits="userSpaceOnUse" x="0" y="14" width="70" height="44">
<path d="M0.290283 14.1108H69.8693V57.9446H0.290283V14.1108Z" fill="white"/>
</mask>
<g mask="url(#mask0_358_942)">
<path fill-rule="evenodd" clip-rule="evenodd" d="M0.349332 42.6785C2.62271 46.0994 5.42161 49.3746 8.70472 51.9245C10.3482 53.2049 12.1315 54.3062 14.0496 55.0935C15.9707 55.8444 18.0374 56.3049 20.0785 56.6819C24.1814 57.4052 28.4063 57.4594 32.4944 56.6986C36.5905 55.9753 40.5064 54.4518 44.1644 52.4825C47.8136 50.4719 51.2306 48.0411 54.2165 45.1379C57.226 42.2592 59.7946 38.9427 62.1349 35.4834C64.4073 31.9828 66.724 28.4369 68.3173 24.6155C68.6834 23.655 69.0288 22.6718 69.1371 21.6828C69.1853 21.1907 69.1794 20.7006 69.0584 20.2538C68.9353 19.7971 68.6726 19.4714 68.3006 19.0512C67.7337 18.2983 66.7584 17.7826 65.9022 17.2157C65.0165 16.6685 64.1101 16.143 63.1978 15.6372L63.1938 15.6362L63.1515 15.6096C62.1506 14.9502 60.7758 14.7062 59.4984 14.7416C58.8607 14.7691 58.1678 14.8174 57.596 15.0073C56.9942 15.2234 56.4305 15.5337 55.9259 15.9265C53.8533 17.5257 52.2374 19.7401 50.8281 21.9741L50.8379 21.9544L43.6044 36.6044C40.7544 41.3204 36.4989 45.1467 31.4739 47.3551C28.953 48.4449 26.2628 49.0908 23.522 49.2644C20.7918 49.3946 18.0556 49.222 15.3634 48.7497C10.0185 47.7823 4.7455 45.7559 0.349332 42.6805V42.6785ZM0.290283 42.6126C4.86601 45.6036 10.0087 47.6204 15.3979 48.5371C18.0748 48.9849 20.7979 49.1355 23.5063 48.9829C26.2087 48.7924 28.8578 48.1354 31.3361 47.0412C36.2667 44.8407 40.4493 40.9867 43.195 36.3908L50.338 21.7093L50.3488 21.6896C51.7856 19.3887 53.378 17.1547 55.5648 15.4413C56.1195 15.0044 56.7409 14.6595 57.4051 14.4198C58.1147 14.1875 58.7809 14.1521 59.4816 14.1137C60.8683 14.0842 62.2855 14.2741 63.5521 15.0929L63.5078 15.0644C64.4359 15.5692 65.3517 16.0962 66.2545 16.6449C67.1334 17.2295 68.1008 17.695 68.834 18.6132C69.1597 18.9685 69.5839 19.4842 69.7295 20.057C69.888 20.6278 69.89 21.2025 69.8408 21.7536C69.7226 22.8588 69.3684 23.8813 68.9973 24.8802C67.3765 28.8375 65.0854 32.3863 62.8199 35.9391C60.4874 39.4505 57.9021 42.8409 54.8276 45.7697C51.7856 48.729 48.2978 51.212 44.5896 53.2571C37.1908 57.4239 28.2872 58.9543 19.9702 57.2724C17.8927 56.8571 15.8427 56.3729 13.8547 55.5668C11.8943 54.7303 10.0894 53.5789 8.44195 52.2542C5.17368 49.5503 2.41332 46.2858 0.290283 42.6135" fill="#231F20"/>
</g>
<mask id="mask1_358_942" style="mask-type:alpha" maskUnits="userSpaceOnUse" x="62" y="0" width="16" height="16">
<path d="M62.8247 0.5H77.2385V15.2917H62.8247V0.5Z" fill="white"/>
</mask>
<g mask="url(#mask1_358_942)">
<path fill-rule="evenodd" clip-rule="evenodd" d="M62.8346 15.2199C64.1012 13.5813 65.3677 11.9693 66.4542 10.247C67.5801 8.57495 68.457 6.73066 69.5021 4.91688C70.0159 4.01344 70.5355 3.11196 71.1575 2.25773C71.4685 1.83258 71.7972 1.41333 72.2184 1.05018C72.6258 0.656524 73.2655 0.461663 73.8019 0.503981C74.9238 0.533506 75.9453 1.21257 76.4886 2.12782C77.0308 3.05488 77.2188 4.11776 77.2385 5.14914C77.2389 5.15499 77.2381 5.16086 77.2362 5.16639C77.2342 5.17193 77.2312 5.17701 77.2272 5.18133C77.2233 5.18566 77.2185 5.18914 77.2132 5.19155C77.2078 5.19397 77.202 5.19528 77.1962 5.1954C77.1849 5.19542 77.1741 5.19116 77.1659 5.18349C77.1576 5.17581 77.1526 5.16529 77.1519 5.15406C77.0732 4.13351 76.8222 3.10803 76.2662 2.27347C75.7101 1.44876 74.7624 0.915354 73.7979 0.946846C72.7902 0.87402 72.2056 1.76762 71.6279 2.58742C71.0699 3.42886 70.5945 4.33919 70.1261 5.25149C69.1941 7.05543 68.4658 9.05029 67.1855 10.7489C65.9317 12.4259 64.5352 13.9907 62.8966 15.2839C62.8918 15.2873 62.8865 15.2898 62.8808 15.2911C62.8752 15.2925 62.8693 15.2927 62.8635 15.2918C62.8578 15.2909 62.8522 15.2889 62.8473 15.2858C62.8423 15.2828 62.838 15.2787 62.8346 15.274C62.8208 15.2583 62.8228 15.2356 62.8346 15.2199Z" fill="#231F20"/>
</g>
<path fill-rule="evenodd" clip-rule="evenodd" d="M67.8242 18.197C67.8399 16.647 68.0682 15.1304 68.2956 13.6138C68.5465 12.1012 68.9687 10.622 69.3702 9.14287C69.7622 7.65887 70.2037 6.18839 70.6939 4.7339C70.9498 4.00957 71.2254 3.28819 71.5511 2.58847C71.9074 1.93303 72.1839 1.10536 72.9643 0.781578C72.988 0.774689 73.0126 0.783547 73.0214 0.806182C73.0283 0.825865 73.0214 0.850468 72.9998 0.859326L72.9801 0.870151C72.3306 1.19295 72.0806 2.02652 71.7952 2.69279C71.5295 3.40137 71.313 4.13161 71.1161 4.86676C70.7146 6.33477 70.3621 7.81575 70.0591 9.30722C69.7511 10.8012 69.5267 12.3098 69.1636 13.791C68.7788 15.2682 68.4284 16.7533 67.9108 18.2108C67.909 18.2165 67.9061 18.2217 67.9022 18.2263C67.8984 18.2308 67.8936 18.2345 67.8883 18.2372C67.883 18.2399 67.8772 18.2414 67.8712 18.2418C67.8653 18.2421 67.8593 18.2413 67.8537 18.2393C67.836 18.2344 67.8242 18.2147 67.8242 18.197ZM49.1727 33.3036C50.2375 30.2941 51.513 27.3564 53.0561 24.5388C53.8385 23.1374 54.6445 21.7242 55.7379 20.5009C56.8431 19.3603 58.211 18.1222 59.9097 18.0582C59.9343 18.0563 59.954 18.0759 59.9559 18.1006C59.9559 18.1202 59.9392 18.138 59.9215 18.1448C58.4285 18.6979 57.3824 19.874 56.411 21.0756C55.4633 22.3058 54.5215 23.5645 53.6682 24.898C52.0149 27.5926 50.5524 30.4289 49.2543 33.3351C49.2524 33.3406 49.2493 33.3457 49.2454 33.35C49.2414 33.3543 49.2366 33.3577 49.2313 33.3601C49.2259 33.3625 49.2202 33.3638 49.2143 33.3639C49.2085 33.364 49.2027 33.3629 49.1973 33.3607C49.1868 33.3559 49.1785 33.3475 49.1739 33.3369C49.1694 33.3264 49.1689 33.3145 49.1727 33.3036Z" fill="#231F20"/>
</svg>
