<svg width="57" height="57" viewBox="0 0 57 57" fill="none" xmlns="http://www.w3.org/2000/svg">
<path fill-rule="evenodd" clip-rule="evenodd" d="M36.5054 45.3887L47.492 18.5229L37.6239 45.8199C37.5971 45.8939 37.5561 45.9619 37.503 46.0201C37.45 46.0782 37.386 46.1253 37.3148 46.1587C37.2436 46.1921 37.1664 46.2112 37.0878 46.2148C37.0092 46.2184 36.9307 46.2065 36.8567 46.1797C36.7827 46.153 36.7147 46.1119 36.6565 46.0589C36.5984 46.0059 36.5513 45.9419 36.5179 45.8707C36.4845 45.7994 36.4654 45.7223 36.4618 45.6437C36.4582 45.5651 36.4701 45.4865 36.4969 45.4125L36.5054 45.3887Z" fill="#010202"/>
<path d="M22.3939 46.4587C22.3939 46.4587 12.8018 44.0856 9.38359 40.1925C5.9673 36.2974 0.456886 30.7908 0.931873 7.52403C0.931873 7.52403 4.54139 3.82123 23.7236 14.1719M37.2936 44.9709C36.7225 46.3958 38.5367 56.7142 38.5367 56.7142C38.5367 56.7142 31.1302 51.872 27.4274 42.9453C23.7227 34.0186 25.1486 32.2148 25.4332 26.9918C25.7169 21.7679 30.5257 13.6179 33.3623 10.8956C35.406 8.93281 42.2481 3.77553 45.9623 1.00843C46.2786 0.77328 46.6394 0.60505 47.0229 0.514006C47.4063 0.422962 47.8043 0.411014 48.1925 0.478892C48.5807 0.54677 48.951 0.693049 49.2808 0.9088C49.6106 1.12455 49.8929 1.40525 50.1106 1.73376C54.415 8.16845 56.8766 15.7387 56.7157 23.4794C56.6205 28.0703 55.6068 32.6993 52.6169 35.7615C52.6169 35.7615 45.5654 42.5655 39.8665 43.2299C34.1695 43.8943 37.9494 54.2945 37.9494 54.2945L37.2936 44.9709Z" stroke="#010202" stroke-width="0.5" stroke-linecap="round" stroke-linejoin="round"/>
<path fill-rule="evenodd" clip-rule="evenodd" d="M12.3448 17.8471C13.7544 19.244 15.1011 20.7031 16.3808 22.22C17.0223 22.9786 17.7029 23.7173 18.2093 24.5902C18.6738 25.4659 19.2221 26.3949 19.2069 27.461C19.2068 27.4706 19.2034 27.4798 19.1975 27.4873C19.1915 27.4947 19.1832 27.5 19.1739 27.5021C19.1646 27.5043 19.1548 27.5034 19.1461 27.4994C19.1375 27.4954 19.1304 27.4886 19.126 27.4801L19.1231 27.4725C18.6738 26.5958 18.0808 25.8447 17.4954 25.0642C16.9157 24.2837 16.4017 23.4479 15.8401 22.6398C14.6858 21.0371 13.4992 19.4579 12.281 17.9032C12.2775 17.8988 12.2749 17.8938 12.2733 17.8883C12.2718 17.8829 12.2714 17.8772 12.2721 17.8716C12.2728 17.866 12.2746 17.8606 12.2775 17.8557C12.2803 17.8509 12.2841 17.8466 12.2887 17.8433C12.2968 17.8368 12.3071 17.8336 12.3175 17.8343C12.3279 17.835 12.3376 17.8396 12.3448 17.8471Z" fill="#010202"/>
</svg>
